OpenSim_Sub10_EMGBaseline_GRF.mot
version=1
nRows=30
nColumns=19
inDegrees=no
endheader
time	lFx	lFy	lFz	lCOPx	lCOPy	lCOPz	rFx	rFy	rFz	rCOPx	rCOPy	rCOPz	lMx	lMy	lMz	rMx	rMy	rMz
0	-0.99051821	343.63143292	25.15459571	0.64111864	0	-0.62504593	0.42048737	322.01053517	-18.72151724	0.64376819	0	-0.36970787	0	3.35241454	0	0	0.12993377	0
0.01000000	0.38073266	343.42029987	25.61377068	0.64356122	0	-0.62484554	1.58018797	322.51469002	-18.68295857	0.64530189	0	-0.36956468	0	3.08005634	0	0	0.13238587	0
0.02000000	1.10208199	343.17453910	25.86959285	0.64486398	0	-0.62471424	2.16559914	322.93297239	-18.70566622	0.64617765	0	-0.36951388	0	2.93405195	0	0	0.14061642	0
0.03000000	1.33070040	342.93668537	25.96058850	0.64535747	0	-0.62466197	2.30616082	323.29206725	-18.74580370	0.64645724	0	-0.36948779	0	2.87339785	0	0	0.14688393	0
0.04000000	1.33407648	342.73615663	25.97155829	0.64545894	0	-0.62467707	2.25122851	323.69599928	-18.77280702	0.64649770	0	-0.36943439	0	2.85978785	0	0	0.14763715	0
0.05000000	1.30624368	342.55911145	25.95122149	0.64557798	0	-0.62469764	2.13975389	324.13997134	-18.79324620	0.64651468	0	-0.36936149	0	2.86132172	0	0	0.14647393	0
0.06000000	1.31204209	342.37600838	25.91821880	0.64582871	0	-0.62468099	2.03646071	324.52845536	-18.82131954	0.64665486	0	-0.36931631	0	2.85718602	0	0	0.14659677	0
0.07000000	1.33723915	342.18943999	25.86871067	0.64609342	0	-0.62465009	1.96867899	324.75475271	-18.86936706	0.64689585	0	-0.36933554	0	2.85497764	0	0	0.15228242	0
0.08000000	1.34969576	342.06384363	25.82942548	0.64624232	0	-0.62462191	1.92715383	324.80946709	-18.91606728	0.64721076	0	-0.36938081	0	2.86755231	0	0	0.15951101	0
0.09000000	1.33640460	341.97068624	25.78584380	0.64626620	0	-0.62462691	1.89553419	324.75212344	-18.93203345	0.64747165	0	-0.36941520	0	2.90249378	0	0	0.18345444	0
0.10000000	1.31088893	341.94792995	25.73646667	0.64617178	0	-0.62467374	1.85348402	324.62851952	-18.91763589	0.64763432	0	-0.36944341	0	2.95203568	0	0	0.21703393	0
0.11000000	1.31073961	342.05497956	25.70933333	0.64602075	0	-0.62474710	1.80778399	324.52505924	-18.89223514	0.64781017	0	-0.36942390	0	2.98727133	0	0	0.23149952	0
0.12000000	1.32852370	342.19610091	25.70428783	0.64594584	0	-0.62478199	1.76092044	324.50377907	-18.86915699	0.64799752	0	-0.36933634	0	3.00258135	0	0	0.21682794	0
0.13000000	1.32545806	342.28407486	25.69554911	0.64594475	0	-0.62476540	1.72219451	324.56764319	-18.85435991	0.64818660	0	-0.36923943	0	3.01309907	0	0	0.18820956	0
0.14000000	1.29833893	342.32599949	25.69186893	0.64606415	0	-0.62473501	1.70573490	324.61115425	-18.86474998	0.64827345	0	-0.36920126	0	3.00746032	0	0	0.16487064	0
0.15000000	1.27161926	342.36675229	25.68192536	0.64620349	0	-0.62474519	1.72573894	324.61378423	-18.87932091	0.64818645	0	-0.36920118	0	2.98526704	0	0	0.16540588	0
0.16000000	1.24826198	342.42805223	25.66641490	0.64630687	0	-0.62477791	1.78765184	324.63761600	-18.89047389	0.64814748	0	-0.36921538	0	2.96849179	0	0	0.16614504	0
0.17000000	1.23966528	342.51822689	25.67148904	0.64643355	0	-0.62478900	1.88733594	324.74662164	-18.90898763	0.64817506	0	-0.36922386	0	2.97264667	0	0	0.16200611	0
0.18000000	1.24387003	342.59937229	25.71974765	0.64648577	0	-0.62474742	1.99524730	324.91302795	-18.90961882	0.64815286	0	-0.36920168	0	2.98249742	0	0	0.16902395	0
0.19000000	1.24459054	342.62274106	25.77621856	0.64653052	0	-0.62472036	2.07664190	325.07512295	-18.89332516	0.64803750	0	-0.36914666	0	2.97650241	0	0	0.19374381	0
0.20000000	1.24083688	342.60414783	25.82641507	0.64669502	0	-0.62477019	2.09773083	325.16834832	-18.87434313	0.64791745	0	-0.36911224	0	2.94312453	0	0	0.20787653	0
0.21000000	1.23437107	342.55955020	25.85682161	0.64691326	0	-0.62481613	2.08140922	325.15888114	-18.85499196	0.64782239	0	-0.36911783	0	2.89745451	0	0	0.21081586	0
0.22000000	1.21237268	342.53727037	25.87040404	0.64708441	0	-0.62480148	2.08067734	325.08158744	-18.84697245	0.64784775	0	-0.36914850	0	2.88830409	0	0	0.21276882	0
0.23000000	1.16032444	342.48271655	25.89804588	0.64730354	0	-0.62473271	2.11067367	324.98665037	-18.84530486	0.64799935	0	-0.36917104	0	2.90137056	0	0	0.21774439	0
0.24000000	1.11187048	342.31358152	25.92159509	0.64762020	0	-0.62465636	2.15618070	324.91232152	-18.83538332	0.64816126	0	-0.36919420	0	2.90335903	0	0	0.22862787	0
0.25000000	1.08531666	342.05724908	25.92016129	0.64786573	0	-0.62461999	2.20170421	324.92835230	-18.82218819	0.64832117	0	-0.36919680	0	2.90429048	0	0	0.24254875	0
0.26000000	1.07253002	341.76959502	25.89992707	0.64799431	0	-0.62463032	2.21748739	324.99191018	-18.81482897	0.64844609	0	-0.36917431	0	2.90178606	0	0	0.26646548	0
0.27000000	1.07984899	341.52835819	25.86872013	0.64807533	0	-0.62466051	2.21425361	324.99779727	-18.80230689	0.64840350	0	-0.36915375	0	2.89822710	0	0	0.29857093	0
0.28000000	1.10073270	341.41279235	25.82966123	0.64816028	0	-0.62473908	2.23516710	324.95370314	-18.79537277	0.64825270	0	-0.36915707	0	2.89234658	0	0	0.32809242	0
0.29000000	1.12570734	341.42350063	25.80955416	0.64826058	0	-0.62483168	2.28439431	324.93770046	-18.81524831	0.64815638	0	-0.36917499	0	2.88078215	0	0	0.32978344	0
